<svg width="343" height="55" viewBox="0 0 343 55" fill="none" xmlns="http://www.w3.org/2000/svg">
<path d="M147.621 23.8633L146.265 28.7326H131.787L129.222 37.895H141.433L140.132 42.6156H127.921L124.706 54.2685H118.963L127.401 23.8633H147.621Z" fill="#FAFBFD"/>
<path d="M150.521 23.8633H156.263L147.826 54.2685H142.083L150.521 23.8633Z" fill="#FAFBFD"/>
<path d="M174.737 54.2685H171.596L170.722 52.2427C169.421 53.6923 167.544 54.5101 164.552 54.5101H160.259C154.907 54.5101 152.918 51.8152 154.423 46.4442L158.531 31.669C160.017 26.2608 162.675 23.5659 168.864 23.5659H174.904C180.312 23.5659 182.282 26.2608 180.888 31.1486L180.257 33.5647H174.57L175.053 31.7248C175.629 29.2715 175.108 28.4352 172.395 28.4352H168.678C166.02 28.4352 164.961 29.3087 164.143 32.208L160.333 45.868C159.516 48.7673 160.148 49.6408 162.842 49.6408H166.857C169.514 49.6408 170.574 48.7301 171.391 45.868L171.633 45.0874L172.302 42.5227H166.801L168.102 37.895H179.29L174.737 54.2685Z" fill="#FAFBFD"/>
<path d="M193.322 23.8633L189.847 36.464H200.663L204.139 23.919H209.881L201.444 54.3242H195.701L199.362 41.2032H188.508L184.884 54.2871H179.142L187.579 23.8819H193.322V23.8633Z" fill="#FAFBFD"/>
<path d="M234.395 28.7326H225.66L218.616 54.2685H212.874L219.917 28.7326H211.182L212.539 23.8633H235.752L234.395 28.7326Z" fill="#FAFBFD"/>
<path d="M252.534 54.5101H246.308C240.956 54.5101 238.967 51.8152 240.472 46.4442L244.58 31.669C246.085 26.2608 248.724 23.5659 254.913 23.5659H261.139C266.492 23.5659 268.48 26.2608 266.975 31.669L266.157 34.5125H260.414L261.083 32.1894C261.957 29.3459 261.232 28.4166 258.574 28.4166H254.709C252.051 28.4166 250.992 29.2901 250.174 32.1894L246.364 45.8494C245.546 48.7487 246.178 49.6222 248.873 49.6222H252.683C255.378 49.6222 256.456 48.7115 257.273 45.8494L257.905 43.5263H263.648L262.868 46.4256C261.362 51.7967 258.723 54.5101 252.534 54.5101Z" fill="#FAFBFD"/>
<path d="M273.87 23.8633H279.613L272.513 49.3992H286.266L284.909 54.2685H265.414L273.87 23.8633Z" fill="#FAFBFD"/>
<path d="M301.431 54.5101H295.354C290.002 54.5101 288.013 51.8152 289.518 46.4442L295.8 23.8633H301.543L295.41 45.868C294.629 48.7673 295.224 49.6408 297.863 49.6408H301.617C304.275 49.6408 305.39 48.7673 306.152 45.868L312.285 23.8633H318.028L311.746 46.4442C310.259 51.7967 307.639 54.5101 301.431 54.5101Z" fill="#FAFBFD"/>
<path d="M337.226 23.8633C341.91 23.8633 343.88 26.5581 342.635 30.8513L341.91 33.4532C341.092 36.2967 339.642 37.8393 337.468 38.6199C339.587 39.4004 340.702 41.0359 339.884 44.121L338.973 47.2619C337.821 51.6108 335.163 54.2499 329.699 54.2499H314.924L323.362 23.8447H337.226V23.8633ZM329.848 49.5293C331.781 49.5293 332.896 48.6558 333.416 46.5371L334.086 44.121C334.717 41.9466 334.141 41.1289 332.153 41.1289H324.328L321.968 49.5293H329.848ZM332.543 36.5941C334.476 36.5941 335.628 35.7764 336.167 33.6019L336.706 31.5761C337.189 29.3645 336.706 28.5282 334.773 28.5282H327.822L325.611 36.5941H332.543Z" fill="#FAFBFD"/>
<path d="M83.0939 8.84647H53.5808L56.034 0.0185547H85.5286L83.0939 8.84647Z" fill="#D20A0A"/>
<path d="M63.0962 23.7703H78.9492L81.4025 14.9424H51.9079L44.9014 40.1438H58.5614L63.0962 23.7703Z" fill="#D20A0A"/>
<path d="M96.5495 31.0185C96.1964 30.8141 95.9734 30.5539 95.8804 30.2008C95.8619 30.1078 95.8433 29.9963 95.8433 29.8848C95.8433 29.7919 95.8618 29.699 95.899 29.5875L101.252 10.3147C101.4 9.75717 101.679 9.36688 102.069 9.16244C102.46 8.95801 103.129 8.82791 104.076 8.82791H118.814L121.268 0H100.601C96.8283 0 94.2078 0.446042 92.6838 1.30096C91.1598 2.15587 90.1005 3.66126 89.4872 5.8543L81.8673 33.3231C81.7558 33.7319 81.6814 34.1408 81.6628 34.5311C81.6443 34.9585 81.6814 35.3488 81.7744 35.7577C82.1275 37.0958 83.001 38.1552 84.4134 38.9543C85.8073 39.7349 87.5357 40.1252 89.6173 40.1252H111.232L113.685 31.2973H97.8876C97.3487 31.3159 96.9026 31.2229 96.5495 31.0185Z" fill="#D20A0A"/>
<path d="M15.0352 0.0185547L5.79844 33.3416C5.68693 33.7505 5.61259 34.1593 5.594 34.5496C5.57542 34.9771 5.61259 35.3674 5.70551 35.7762C6.05863 37.1144 6.93213 38.1737 8.34459 38.9729C9.73847 39.7535 11.4669 40.1437 13.5484 40.1437H28.9369C32.7096 40.1437 35.3301 39.6977 36.8541 38.8428C38.3781 37.9879 39.4374 36.4825 40.0507 34.2894L49.5477 0.0185547H35.9063L27.6359 29.829C27.4872 30.3866 27.2085 30.7769 26.8182 30.9813C26.4279 31.2043 25.7588 31.3158 24.811 31.3158H22.4693C21.9489 31.3158 21.5028 31.2229 21.1497 31.0185C20.7966 30.814 20.5736 30.5538 20.4807 30.2007C20.4621 30.1078 20.4435 29.9963 20.4435 29.8848C20.4435 29.7919 20.4621 29.6989 20.4992 29.5874L28.6767 0.0185547H15.0352Z" fill="#D20A0A"/>
<path d="M1.69124 48.1538L0 54.2311H107.292L108.983 48.1538H1.69124Z" fill="#D20A0A"/>
</svg>
